# xmcd
#
# Track frame offsets:
#	150
#	17938
#	32245
#	44234
#	54184
#	65947
#	78499
#	91009
#	107034
#	119600
#	132185
#	142740
#	152685
#	164849
#	177740
#	190861
#	201192
#	213139
#	223947
#	235081
#
# Disc length: 3307 seconds
#
# Revision: 1
# Processed by: cddbd v1.5.2PL0 Copyright (c) Steve Scherf et al.
# Submitted via: EZCDAudioConverter 4.0.2.1
#
DISCID=2d0ce914
DTITLE=Varios Artistas - Folk and Country Music CD2
DYEAR=2015
DGENRE=Country
TTITLE0=Simon and Garfunkel - Mrs. Robinson
TTITLE1=Bellamy Brothers - If I Said  You Had a beautiful Body
TTITLE2=Credence Clearwater Revival - Down in the Corner
TTITLE3=James Taylor - Blossom
TTITLE4=The Mamas and The Papas - I Call Your Name
TTITLE5=Conway Twitty - I ve Already Love You in my Mind
TTITLE6=Bob Dylan - Blowin in the Wind
TTITLE7=Ray Charles - It Makes No Difference Now
TTITLE8=Kenny Rogers - Reuben James
TTITLE9=Simon and Garfunkel - The Sun is Burning
TTITLE10=Dolly Parton and Peter Wagoner - Just Between You and Me
TTITLE11=Johnny Cash - Wildwood Flower
TTITLE12=Donovan - Jennifer Juniper
TTITLE13=James Taylor - Sweet Baby James
TTITLE14=Kenny Rogers - Ruby Dont Take Your Love to Town
TTITLE15=Credence Clearwater Revival - Bad Moon Rising
TTITLE16=Connie Francis - Everybody's Fool
TTITLE17=Skeeter Davis - He'll Have to Stay
TTITLE18=Johnny Horton - Cherokee Boogie
TTITLE19=Ray Charles - Worried Mind
EXTD=
EXTT0=
EXTT1=
EXTT2=
EXTT3=
EXTT4=
EXTT5=
EXTT6=
EXTT7=
EXTT8=
EXTT9=
EXTT10=
EXTT11=
EXTT12=
EXTT13=
EXTT14=
EXTT15=
EXTT16=
EXTT17=
EXTT18=
EXTT19=
PLAYORDER=
